# xmcd
#
# Track frame offsets:
#	150
#	21805
#	37273
#	63019
#	78917
#	96406
#	134505
#	155654
#	180228
#	198095
#	224249
#	239122
#	290364
#	313798
#
# Disc length: 4706 seconds
#
# Revision: 0
# Processed by: cddbd v1.5.2PL0 Copyright (c) Steve Scherf et al.
# Submitted via: audiograbber 1.83.01
#
DISCID=cf12600e
DTITLE=Brushfire Stankgrass - Live 2007
DYEAR=2007
DGENRE=Bluegrass
TTITLE0=Sweet and Low Down
TTITLE1=Parker Padgett Blackout
TTITLE2=Banjo In My Spaceship
TTITLE3=Higher Bliss
TTITLE4=One For The Salamanders
TTITLE5=On My Way
TTITLE6=Autumn Amble
TTITLE7=Hedgehog Highway
TTITLE8=Mouth To Mouth Resuscitation
TTITLE9=Fumaquious Monarch
TTITLE10=Black Walnet Boogie
TTITLE11=Futbol Reggae
TTITLE12=Minor Consideration
TTITLE13=Hartford Remix
EXTD=
EXTT0=
EXTT1=
EXTT2=
EXTT3=
EXTT4=
EXTT5=
EXTT6=
EXTT7=
EXTT8=
EXTT9=
EXTT10=
EXTT11=
EXTT12=
EXTT13=
PLAYORDER=
